<svg version="1.1" id="Layer_1" xmlns="http://www.w3.org/2000/svg" xmlns:xlink="http://www.w3.org/1999/xlink" x="0px" y="0px"
	 width="100%" viewBox="0 0 324 296" enable-background="new 0 0 324 296" xml:space="preserve">
<path fill="#22304E" opacity="1.000000" stroke="none" 
	d="
M325.000000,75.000000 
	C325.000000,79.689255 325.000000,84.378510 324.645905,89.612770 
	C323.245178,92.725525 322.169952,95.282036 321.156616,97.862862 
	C314.558289,114.667595 303.512115,127.285347 285.770966,132.141983 
	C277.601135,134.378479 268.740631,134.042084 260.219879,135.088638 
	C258.499359,135.299942 255.475281,136.462036 255.462326,137.226624 
	C255.329666,145.052643 253.020905,153.181610 258.110748,160.457977 
	C262.820923,167.191574 268.325684,173.583633 271.813416,180.918777 
	C283.296997,205.070374 282.590332,229.694305 270.183411,253.079803 
	C255.740814,280.302307 232.334305,294.515106 201.274048,294.931458 
	C177.286636,295.252991 153.291183,294.921814 129.299866,295.018066 
	C105.537766,295.113403 83.228371,289.747894 62.816364,277.416595 
	C43.076603,265.491394 27.540415,249.355194 17.204544,228.743195 
	C7.762295,209.913300 3.891412,189.686020 5.052565,168.594910 
	C5.368470,162.856812 8.246992,158.333008 13.399673,156.039810 
	C18.787907,153.641769 23.763464,155.611938 27.932865,159.476776 
	C30.619259,161.966919 33.047642,164.737701 35.760002,167.197037 
	C41.056038,171.999054 46.690228,174.570770 54.259102,171.926575 
	C63.469788,168.708817 73.006393,166.418488 82.415802,163.776108 
	C108.725464,156.387787 135.056259,149.074188 161.345673,141.614700 
	C167.396454,139.897827 169.167984,134.522125 165.497803,129.269745 
	C163.519180,126.438179 160.865799,124.081833 158.847488,121.273460 
	C155.691818,116.882523 152.016037,112.624809 149.966034,107.722885 
	C142.456100,89.765190 142.682816,71.489639 150.363068,53.676773 
	C156.646317,39.104000 167.040283,27.596842 181.443558,20.925972 
	C199.673325,12.482859 218.673920,13.150859 236.673782,21.551014 
	C256.733551,30.912477 269.505310,46.850803 273.898682,68.894379 
	C274.537933,72.101761 275.669464,74.215782 279.255157,74.082428 
	C285.986145,73.832108 292.714874,73.431732 299.447784,73.343956 
	C307.998749,73.232460 316.910492,67.965904 325.000000,75.000000 
M212.203369,204.653137 
	C213.864761,197.422653 215.783264,190.238785 217.105713,182.946823 
	C218.152359,177.175644 214.295807,171.594147 209.438217,170.843918 
	C203.954498,169.996994 198.931244,173.814819 197.987503,180.014954 
	C195.311996,197.592590 188.143036,212.597992 173.836029,223.743286 
	C157.537628,236.439896 139.283813,240.301910 119.157089,236.223907 
	C104.907654,233.336746 93.439529,225.890015 83.730934,215.297119 
	C80.011894,211.239334 74.127014,210.714157 70.315727,213.637283 
	C66.909187,216.249985 65.542412,222.022598 68.592987,226.311859 
	C71.881035,230.935013 76.114044,235.012741 80.432793,238.753494 
	C96.066017,252.294464 114.759056,257.940674 135.032867,257.713654 
	C150.189087,257.543976 164.358765,252.157791 177.438568,244.915680 
	C193.520981,236.011063 204.797897,222.352478 212.203369,204.653137 
M215.763458,66.195160 
	C202.410782,69.022049 202.858459,85.249718 209.377548,91.449287 
	C213.504486,95.373955 223.027756,95.465637 227.887161,91.939522 
	C234.156937,87.390007 235.544235,81.633232 232.202286,74.033592 
	C229.318680,67.476295 223.898529,64.718872 215.763458,66.195160 
z"/>
<path fill="#000000" opacity="1.000000" stroke="none" 
	d="
M325.000000,74.531342 
	C316.910492,67.965904 307.998749,73.232460 299.447784,73.343956 
	C292.714874,73.431732 285.986145,73.832108 279.255157,74.082428 
	C275.669464,74.215782 274.537933,72.101761 273.898682,68.894379 
	C269.505310,46.850803 256.733551,30.912477 236.673782,21.551014 
	C218.673920,13.150859 199.673325,12.482859 181.443558,20.925972 
	C167.040283,27.596842 156.646317,39.104000 150.363068,53.676773 
	C142.682816,71.489639 142.456100,89.765190 149.966034,107.722885 
	C152.016037,112.624809 155.691818,116.882523 158.847488,121.273460 
	C160.865799,124.081833 163.519180,126.438179 165.497803,129.269745 
	C169.167984,134.522125 167.396454,139.897827 161.345673,141.614700 
	C135.056259,149.074188 108.725464,156.387787 82.415802,163.776108 
	C73.006393,166.418488 63.469788,168.708817 54.259102,171.926575 
	C46.690228,174.570770 41.056038,171.999054 35.760002,167.197037 
	C33.047642,164.737701 30.619259,161.966919 27.932865,159.476776 
	C23.763464,155.611938 18.787907,153.641769 13.399673,156.039810 
	C8.246992,158.333008 5.368470,162.856812 5.052565,168.594910 
	C3.891412,189.686020 7.762295,209.913300 17.204544,228.743195 
	C27.540415,249.355194 43.076603,265.491394 62.816364,277.416595 
	C83.228371,289.747894 105.537766,295.113403 129.299866,295.018066 
	C153.291183,294.921814 177.286636,295.252991 201.274048,294.931458 
	C232.334305,294.515106 255.740814,280.302307 270.183411,253.079803 
	C282.590332,229.694305 283.296997,205.070374 271.813416,180.918777 
	C268.325684,173.583633 262.820923,167.191574 258.110748,160.457977 
	C253.020905,153.181610 255.329666,145.052643 255.462326,137.226624 
	C255.475281,136.462036 258.499359,135.299942 260.219879,135.088638 
	C268.740631,134.042084 277.601135,134.378479 285.770966,132.141983 
	C303.512115,127.285347 314.558289,114.667595 321.156616,97.862862 
	C322.169952,95.282036 323.245178,92.725525 324.645905,90.078888 
	C325.000000,158.975357 325.000000,227.950729 325.000000,296.963043 
	C217.063217,296.963043 109.126419,296.963043 1.094808,296.963043 
	C1.094808,198.431854 1.094808,99.863586 1.094808,1.147657 
	C108.999855,1.147657 216.999893,1.147657 325.000000,1.147657 
	C325.000000,25.413433 325.000000,49.738060 325.000000,74.531342 
z"/>
<path fill="#000000" opacity="1.000000" stroke="none" 
	d="
M212.106110,205.029968 
	C204.797897,222.352478 193.520981,236.011063 177.438568,244.915680 
	C164.358765,252.157791 150.189087,257.543976 135.032867,257.713654 
	C114.759056,257.940674 96.066017,252.294464 80.432793,238.753494 
	C76.114044,235.012741 71.881035,230.935013 68.592987,226.311859 
	C65.542412,222.022598 66.909187,216.249985 70.315727,213.637283 
	C74.127014,210.714157 80.011894,211.239334 83.730934,215.297119 
	C93.439529,225.890015 104.907654,233.336746 119.157089,236.223907 
	C139.283813,240.301910 157.537628,236.439896 173.836029,223.743286 
	C188.143036,212.597992 195.311996,197.592590 197.987503,180.014954 
	C198.931244,173.814819 203.954498,169.996994 209.438217,170.843918 
	C214.295807,171.594147 218.152359,177.175644 217.105713,182.946823 
	C215.783264,190.238785 213.864761,197.422653 212.106110,205.029968 
z"/>
<path fill="#000000" opacity="1.000000" stroke="none" 
	d="
M216.145386,66.127197 
	C223.898529,64.718872 229.318680,67.476295 232.202286,74.033592 
	C235.544235,81.633232 234.156937,87.390007 227.887161,91.939522 
	C223.027756,95.465637 213.504486,95.373955 209.377548,91.449287 
	C202.858459,85.249718 202.410782,69.022049 216.145386,66.127197 
z"/>
</svg>