<svg version="1.1" id="Layer_1" xmlns="http://www.w3.org/2000/svg" xmlns:xlink="http://www.w3.org/1999/xlink" x="0px" y="0px"
	 width="100%" viewBox="0 0 1024 1024" enable-background="new 0 0 1024 1024" xml:space="preserve">
<path fill="#000000" opacity="1.000000" stroke="none" 
	d="
M669.915771,501.095947 
	C677.405640,512.008667 688.023376,519.170959 697.347046,527.679871 
	C726.680603,554.449890 748.586792,585.777527 756.469604,625.469788 
	C764.650818,666.664246 756.134155,704.598450 732.037415,738.637207 
	C702.640930,780.162292 661.088074,803.451233 612.455261,815.262573 
	C590.256409,820.653931 567.713623,823.427307 544.836243,823.390564 
	C504.361145,823.325623 463.869812,824.050232 423.415100,823.131592 
	C378.189484,822.104553 334.689667,812.981140 294.521027,790.955383 
	C252.671890,768.008179 219.636932,735.890137 194.428925,695.526794 
	C173.604660,662.182739 160.922150,625.795654 154.920944,587.121948 
	C151.656891,566.087341 150.396027,544.839233 153.685715,523.602051 
	C154.088974,520.998718 154.700104,518.366028 155.662064,515.923035 
	C158.085312,509.768982 162.275421,508.795502 167.276718,513.228455 
	C177.246048,522.064819 187.041336,531.098328 197.046356,539.893616 
	C226.157547,565.484802 258.135345,585.953491 296.419373,595.032227 
	C320.734863,600.798340 345.287201,601.944397 370.179962,599.848816 
	C401.434113,597.217651 429.196136,586.086304 454.068481,567.316956 
	C470.074524,555.238403 478.613556,538.779724 481.632690,519.238770 
	C484.885284,498.186462 481.321716,477.921082 474.625061,457.961639 
	C468.284180,439.062714 462.152710,420.108307 458.343597,400.461060 
	C454.237732,379.283417 451.990021,357.844269 453.955597,336.481873 
	C458.040161,292.089691 476.167419,254.549988 512.610352,227.433289 
	C533.671875,211.761658 557.705566,204.721924 584.031860,204.555252 
	C615.501892,204.356033 643.643921,213.855347 668.658020,232.509796 
	C696.208679,253.055847 712.533142,280.663330 718.128967,314.555359 
	C718.883301,319.124176 719.208496,323.801819 719.266174,328.434814 
	C719.306824,331.707428 720.234375,333.634979 723.494446,334.785950 
	C739.644897,340.487732 755.845398,346.161560 772.727478,349.129395 
	C784.830078,351.257050 797.234314,351.073853 809.521729,351.615143 
	C814.995850,351.856262 820.447205,351.692383 825.935791,352.525482 
	C839.024231,354.512177 844.758301,366.376740 837.367126,377.446960 
	C832.153503,385.255920 825.078613,391.475677 817.986206,397.512024 
	C790.696045,420.738342 758.665222,433.220062 723.516724,438.082184 
	C706.700439,440.408447 689.748779,441.271851 672.942688,437.740570 
	C669.372925,436.990540 668.043823,438.803558 666.800476,441.291809 
	C656.618408,461.668121 656.987122,481.538940 669.915771,501.095947 
M607.756348,284.344238 
	C595.944092,285.113129 587.242126,290.963745 581.925232,301.291473 
	C576.194092,312.423767 577.105042,323.447998 584.358521,333.776062 
	C592.716858,345.677307 606.953552,350.340149 620.913757,345.817291 
	C633.801331,341.641968 642.421875,329.254303 642.716492,315.485046 
	C643.061523,299.360352 627.736267,282.080475 607.756348,284.344238 
z"/>
</svg>