<svg id="svg" xmlns="http://www.w3.org/2000/svg" xmlns:xlink="http://www.w3.org/1999/xlink" width="400" height="400" viewBox="0 0 400 400"><g id="svgg"><path id="path0" d="M239.848 19.142 C 240.420 19.277,239.539 19.532,237.468 19.832 C 235.659 20.094,231.982 20.941,229.297 21.714 C 226.611 22.487,224.035 23.147,223.572 23.181 C 223.110 23.214,222.793 23.342,222.868 23.464 C 222.944 23.586,222.355 23.917,221.561 24.198 C 220.767 24.480,218.390 25.569,216.279 26.618 C 214.168 27.667,212.235 28.407,211.982 28.263 C 211.730 28.118,211.653 28.143,211.812 28.318 C 211.970 28.493,210.652 29.595,208.882 30.765 C 207.112 31.936,205.301 33.227,204.858 33.635 C 204.414 34.042,203.953 34.375,203.833 34.375 C 203.712 34.375,202.949 34.984,202.137 35.728 C 201.325 36.472,200.507 36.986,200.320 36.871 C 200.134 36.755,200.029 36.893,200.088 37.178 C 200.147 37.463,199.963 37.647,199.678 37.588 C 199.393 37.529,199.253 37.630,199.365 37.812 C 199.588 38.171,193.764 44.139,193.229 44.099 C 193.050 44.086,192.786 44.206,192.643 44.366 C 192.500 44.526,192.603 44.530,192.871 44.376 C 193.747 43.872,193.385 44.762,192.320 45.733 C 191.748 46.254,191.407 46.460,191.562 46.191 C 191.716 45.923,191.676 45.703,191.471 45.703 C 191.267 45.703,190.993 45.981,190.862 46.321 C 190.528 47.191,190.565 47.349,191.033 47.059 C 191.258 46.921,190.405 48.273,189.138 50.064 C 187.871 51.855,186.428 54.060,185.932 54.965 C 185.436 55.869,184.856 56.501,184.642 56.369 C 184.429 56.237,184.369 56.315,184.509 56.542 C 184.786 56.989,183.091 60.252,182.635 60.152 C 182.482 60.119,182.240 60.222,182.096 60.382 C 181.953 60.541,182.056 60.546,182.324 60.391 C 182.920 60.049,182.923 60.114,182.384 61.660 C 182.141 62.357,181.776 62.779,181.542 62.634 C 181.315 62.494,181.233 62.547,181.360 62.753 C 181.487 62.959,181.005 64.684,180.290 66.587 C 179.486 68.724,178.927 69.762,178.830 69.301 C 178.706 68.713,178.626 68.780,178.455 69.617 C 178.336 70.201,178.388 70.587,178.572 70.473 C 178.756 70.359,178.900 70.409,178.893 70.582 C 178.859 71.364,177.486 75.793,177.326 75.634 C 177.229 75.536,177.140 76.012,177.130 76.693 C 177.119 77.373,176.812 79.825,176.446 82.141 C 176.080 84.457,175.781 87.391,175.781 88.661 C 175.781 89.931,175.628 91.064,175.440 91.181 C 175.027 91.436,174.981 96.519,175.387 97.070 C 175.545 97.285,175.788 99.131,175.927 101.172 C 176.065 103.213,176.279 105.674,176.402 106.641 C 176.578 108.031,176.529 108.276,176.166 107.813 C 175.776 107.314,175.742 107.333,175.940 107.942 C 176.067 108.336,176.172 108.742,176.172 108.844 C 176.172 108.947,176.328 108.934,176.519 108.816 C 176.710 108.698,176.986 109.406,177.134 110.388 C 177.281 111.371,177.646 112.869,177.946 113.718 C 178.246 114.567,178.391 115.762,178.268 116.373 C 178.146 116.984,178.223 117.593,178.440 117.727 C 178.676 117.872,178.764 117.618,178.659 117.090 C 178.563 116.607,178.928 117.354,179.470 118.750 C 180.012 120.146,180.459 121.327,180.462 121.374 C 180.466 121.421,180.176 121.348,179.819 121.210 C 179.382 121.043,179.261 121.111,179.451 121.418 C 179.607 121.669,179.943 121.885,180.199 121.898 C 180.455 121.911,181.813 124.271,183.218 127.143 C 184.622 130.016,185.603 132.261,185.398 132.134 C 185.181 132.000,185.133 132.190,185.285 132.585 C 185.429 132.960,185.547 133.506,185.547 133.799 C 185.547 134.114,185.854 134.271,186.305 134.184 C 186.863 134.077,187.397 134.559,188.331 136.015 C 189.029 137.103,190.182 138.689,190.894 139.541 C 191.605 140.393,192.087 141.253,191.963 141.453 C 191.840 141.653,191.907 141.768,192.113 141.709 C 192.775 141.519,197.636 147.031,197.133 147.399 C 196.838 147.614,196.902 147.659,197.316 147.528 C 197.706 147.405,198.402 147.807,199.110 148.566 C 203.600 153.371,203.355 159.810,198.543 163.484 C 196.146 165.315,181.073 170.374,181.873 169.080 C 182.047 168.799,181.980 168.735,181.695 168.912 C 181.443 169.067,181.327 169.339,181.436 169.517 C 181.697 169.938,179.780 170.416,179.219 170.069 C 178.978 169.920,178.894 169.977,179.030 170.197 C 179.240 170.536,174.851 172.057,173.633 172.067 C 173.418 172.069,173.154 172.180,173.047 172.315 C 172.622 172.846,163.700 175.380,163.025 175.160 C 162.476 174.982,162.433 175.018,162.845 175.311 C 163.509 175.785,161.231 176.400,160.496 175.945 C 160.241 175.787,160.139 175.828,160.267 176.035 C 160.601 176.576,144.706 181.741,143.633 181.440 C 143.095 181.289,142.954 181.326,143.256 181.537 C 143.854 181.956,125.191 188.055,124.541 187.653 C 124.287 187.496,124.205 187.552,124.348 187.784 C 124.492 188.017,123.979 188.353,123.139 188.576 C 122.336 188.788,116.846 190.493,110.938 192.363 C 88.730 199.394,85.374 200.408,84.906 200.228 C 84.642 200.127,84.370 200.205,84.303 200.402 C 84.172 200.781,64.232 206.995,60.497 207.820 C 52.363 209.618,46.758 206.997,37.695 197.160 C 35.547 194.828,32.734 192.023,31.445 190.927 C 30.156 189.830,29.102 188.802,29.102 188.640 C 29.102 188.479,28.942 188.200,28.746 188.021 C 28.536 187.829,28.518 187.916,28.703 188.234 C 28.918 188.605,28.846 188.712,28.472 188.576 C 28.174 188.468,27.976 188.173,28.034 187.921 C 28.091 187.669,27.915 187.506,27.643 187.558 C 26.778 187.725,25.368 187.071,25.641 186.630 C 25.787 186.393,25.722 186.319,25.491 186.461 C 24.691 186.956,22.698 186.290,22.917 185.601 C 23.085 185.072,23.052 185.058,22.723 185.522 C 22.477 185.869,21.454 186.134,20.049 186.216 C 18.558 186.302,16.908 186.752,15.264 187.521 C 13.301 188.439,12.677 188.586,12.395 188.195 C 12.131 187.828,12.089 187.865,12.237 188.332 C 12.474 189.076,10.086 191.581,9.580 191.120 C 9.398 190.955,9.366 191.024,9.508 191.272 C 9.650 191.520,9.328 192.575,8.792 193.616 C 7.726 195.686,7.031 198.764,7.031 201.421 C 7.031 202.358,6.883 203.125,6.702 203.125 C 6.521 203.125,6.370 205.630,6.367 208.691 C 6.363 212.246,6.461 213.622,6.637 212.500 C 6.907 210.788,6.916 210.808,6.976 213.281 C 7.010 214.678,7.152 216.771,7.292 217.932 C 7.451 219.256,7.404 219.957,7.168 219.811 C 6.765 219.562,6.886 223.045,7.292 223.421 C 7.418 223.537,7.441 223.054,7.342 222.346 C 7.243 221.638,7.308 220.969,7.487 220.858 C 7.666 220.748,7.814 221.239,7.817 221.950 C 7.822 223.585,9.481 234.129,10.535 239.221 C 10.975 241.350,11.246 243.181,11.137 243.290 C 11.027 243.400,10.937 243.207,10.938 242.862 C 10.938 242.516,10.764 242.126,10.551 241.995 C 10.018 241.665,10.533 243.062,11.127 243.555 C 11.386 243.770,11.897 245.291,12.263 246.936 C 12.628 248.580,13.626 252.239,14.479 255.067 C 15.332 257.894,15.912 260.399,15.767 260.633 C 15.623 260.867,15.681 260.949,15.897 260.815 C 16.115 260.681,16.503 261.282,16.767 262.163 C 17.029 263.038,17.342 264.043,17.463 264.396 C 17.621 264.858,17.507 264.819,17.057 264.258 C 16.713 263.828,16.431 263.652,16.431 263.867 C 16.431 264.411,17.417 265.656,17.657 265.416 C 17.823 265.250,19.531 269.232,19.531 269.784 C 19.531 269.885,19.355 269.859,19.141 269.727 C 18.646 269.421,18.646 269.938,19.141 270.703 C 19.477 271.224,19.523 271.224,19.557 270.703 C 19.578 270.381,19.926 270.820,20.331 271.680 C 20.736 272.539,20.974 273.594,20.860 274.023 C 20.710 274.588,20.753 274.659,21.017 274.279 C 21.293 273.881,21.485 274.048,21.803 274.962 C 22.035 275.628,22.102 276.175,21.952 276.178 C 21.802 276.181,21.893 276.319,22.153 276.485 C 22.962 276.999,23.888 279.605,23.374 279.922 C 23.098 280.093,23.033 280.026,23.205 279.748 C 23.358 279.500,23.279 279.297,23.028 279.297 C 22.773 279.297,22.677 279.569,22.810 279.915 C 22.940 280.255,23.047 280.628,23.047 280.744 C 23.047 280.860,23.315 280.733,23.642 280.461 C 24.145 280.044,24.195 280.077,23.966 280.673 C 23.799 281.109,23.847 281.285,24.092 281.133 C 24.613 280.811,26.390 284.624,26.243 285.748 C 26.171 286.300,26.387 286.717,26.834 286.887 C 27.399 287.102,27.442 287.058,27.051 286.664 C 26.782 286.393,26.568 285.987,26.575 285.762 C 26.581 285.536,27.006 286.034,27.519 286.868 C 28.032 287.703,28.366 288.608,28.261 288.880 C 28.157 289.152,28.287 289.507,28.549 289.669 C 28.855 289.858,28.926 289.802,28.748 289.513 C 28.595 289.265,28.564 289.063,28.680 289.063 C 28.796 289.063,29.271 289.808,29.736 290.719 C 30.284 291.794,30.378 292.208,30.005 291.898 C 29.473 291.457,29.351 291.951,29.655 293.310 C 29.673 293.390,29.928 293.256,30.222 293.012 C 30.852 292.489,31.744 293.300,31.516 294.189 C 31.440 294.485,31.460 294.570,31.560 294.378 C 31.661 294.187,32.500 295.232,33.425 296.701 C 34.351 298.169,35.004 299.540,34.877 299.746 C 34.749 299.952,34.826 300.009,35.048 299.871 C 35.270 299.734,35.938 300.366,36.532 301.276 C 37.127 302.186,38.474 304.034,39.525 305.383 C 40.577 306.732,41.316 308.034,41.166 308.275 C 41.014 308.522,41.069 308.607,41.293 308.469 C 41.812 308.148,45.781 312.840,45.447 313.380 C 45.305 313.610,45.376 313.679,45.608 313.535 C 46.056 313.258,51.432 318.992,51.270 319.573 C 51.216 319.765,51.312 319.878,51.483 319.824 C 52.000 319.662,59.746 327.059,59.491 327.472 C 59.361 327.683,59.428 327.748,59.641 327.616 C 59.854 327.485,61.341 328.468,62.946 329.802 C 64.551 331.135,66.776 332.920,67.889 333.769 C 69.345 334.878,69.778 335.409,69.429 335.661 C 69.085 335.910,69.126 335.954,69.573 335.813 C 70.318 335.577,72.404 336.841,71.976 337.269 C 71.813 337.432,71.855 337.508,72.070 337.437 C 72.709 337.228,75.418 339.092,75.137 339.547 C 74.991 339.783,75.062 339.851,75.300 339.704 C 75.805 339.393,78.597 340.959,78.324 341.400 C 78.219 341.570,78.429 341.948,78.790 342.241 C 79.242 342.607,79.355 342.621,79.153 342.285 C 78.687 341.509,79.120 341.684,82.424 343.603 C 84.155 344.609,85.423 345.588,85.284 345.812 C 85.147 346.033,85.223 346.099,85.451 345.958 C 86.041 345.593,87.156 346.093,86.851 346.586 C 86.709 346.817,86.784 346.881,87.024 346.732 C 87.594 346.380,91.820 348.474,91.520 348.960 C 91.387 349.175,91.489 349.214,91.754 349.050 C 92.011 348.891,92.434 348.932,92.693 349.141 C 97.409 352.949,123.533 360.879,137.328 362.691 C 146.598 363.909,247.781 364.823,247.077 363.682 C 246.859 363.330,253.674 362.360,256.250 362.377 C 257.683 362.386,258.073 362.303,257.422 362.126 C 256.506 361.877,256.533 361.843,257.858 361.586 C 258.635 361.436,259.513 361.375,259.811 361.452 C 260.108 361.528,260.189 361.507,259.991 361.404 C 259.455 361.127,266.897 358.973,267.566 359.212 C 267.882 359.324,268.011 359.287,267.854 359.130 C 267.422 358.698,274.290 355.862,275.195 356.098 C 275.700 356.229,275.807 356.182,275.498 355.966 C 274.935 355.571,280.679 352.577,281.283 352.950 C 281.490 353.078,281.612 353.008,281.553 352.794 C 281.494 352.580,282.857 351.552,284.581 350.511 C 289.420 347.589,294.752 343.755,298.795 340.292 C 300.817 338.560,302.623 337.236,302.808 337.350 C 302.993 337.465,303.096 337.404,303.037 337.215 C 302.978 337.027,304.831 334.838,307.155 332.352 C 314.307 324.700,320.686 315.764,325.591 306.526 C 326.720 304.399,327.723 302.807,327.820 302.989 C 327.918 303.171,327.947 303.109,327.885 302.850 C 327.688 302.025,330.149 296.484,330.712 296.484 C 331.008 296.484,331.247 296.177,331.244 295.801 C 331.239 295.210,331.181 295.197,330.817 295.703 C 330.477 296.176,330.447 296.138,330.662 295.508 C 333.454 287.328,335.535 280.048,335.543 278.430 C 335.546 277.968,335.760 277.827,336.230 277.979 C 336.756 278.148,336.790 278.110,336.380 277.817 C 335.929 277.496,335.941 276.863,336.457 273.777 C 337.670 266.520,338.010 260.670,337.691 252.539 C 337.523 248.242,337.393 243.672,337.402 242.383 C 337.416 240.543,337.354 240.291,337.115 241.211 C 336.833 242.301,336.808 242.314,336.763 241.406 C 336.736 240.869,336.124 237.897,335.402 234.802 C 334.680 231.706,334.171 228.864,334.270 228.486 C 334.369 228.108,334.255 227.476,334.016 227.083 C 333.654 226.485,333.619 226.560,333.802 227.539 C 333.922 228.184,333.338 226.777,332.504 224.414 C 331.670 222.051,330.603 219.251,330.133 218.192 C 329.461 216.677,329.385 216.193,329.776 215.917 C 330.154 215.650,330.135 215.603,329.697 215.722 C 329.110 215.882,324.794 207.808,324.881 206.712 C 324.904 206.429,324.823 206.296,324.703 206.417 C 324.152 206.968,323.408 205.080,323.832 204.206 C 324.207 203.434,324.194 203.404,323.733 203.970 C 323.206 204.619,318.620 198.714,318.620 197.387 C 318.620 197.129,318.503 196.953,318.360 196.994 C 318.216 197.036,316.688 195.400,314.963 193.359 C 313.239 191.318,311.447 189.310,310.983 188.896 C 310.342 188.325,310.258 188.067,310.635 187.828 C 310.978 187.610,310.872 187.510,310.296 187.506 C 309.078 187.497,309.098 187.729,309.037 172.780 L 308.980 159.036 312.910 158.913 C 315.071 158.845,317.006 158.956,317.209 159.160 C 317.442 159.394,317.578 159.358,317.578 159.063 C 317.578 158.749,318.385 158.591,320.020 158.586 C 323.512 158.575,329.944 157.652,335.156 156.415 C 337.627 155.828,340.117 155.331,340.690 155.311 C 341.263 155.290,341.658 155.199,341.567 155.109 C 341.477 155.018,343.293 154.222,345.604 153.339 C 361.372 147.316,372.989 136.718,380.583 121.429 C 386.971 108.569,389.425 92.094,385.590 87.815 C 383.785 85.801,381.458 85.737,360.352 87.118 C 356.914 87.343,350.367 87.565,345.803 87.611 C 341.239 87.657,337.504 87.827,337.503 87.988 C 337.501 88.149,336.050 88.260,334.277 88.235 C 331.961 88.202,331.384 88.105,332.227 87.891 C 333.087 87.672,332.671 87.595,330.664 87.602 C 328.353 87.609,328.172 87.654,329.492 87.891 C 330.762 88.118,330.506 88.171,328.125 88.174 C 325.900 88.177,325.524 88.109,326.563 87.891 L 327.930 87.603 326.493 87.551 C 325.062 87.500,325.054 87.490,324.632 85.254 C 324.399 84.019,323.655 80.898,322.978 78.320 C 322.302 75.742,321.733 73.252,321.714 72.786 C 321.695 72.321,321.603 72.017,321.509 72.111 C 321.240 72.380,318.653 65.160,318.601 63.997 C 318.575 63.424,318.414 62.815,318.241 62.642 C 318.069 62.470,318.034 62.675,318.164 63.098 C 318.294 63.521,317.698 62.549,316.840 60.938 C 315.970 59.303,315.355 57.662,315.449 57.227 C 315.542 56.797,315.512 56.679,315.383 56.964 C 315.236 57.291,314.643 56.639,313.785 55.206 C 313.034 53.954,311.569 51.675,310.528 50.142 C 309.487 48.608,308.714 47.246,308.810 47.114 C 308.906 46.983,308.875 46.956,308.740 47.054 C 308.358 47.334,305.478 43.661,305.743 43.231 C 305.873 43.021,305.803 42.958,305.586 43.092 C 305.002 43.453,303.373 41.569,303.733 40.947 C 303.897 40.662,303.883 40.565,303.701 40.731 C 303.269 41.123,300.349 38.274,300.662 37.767 C 300.794 37.554,300.719 37.493,300.495 37.631 C 300.271 37.769,298.594 36.688,296.769 35.228 C 294.944 33.768,292.288 31.815,290.866 30.889 C 289.444 29.963,288.281 29.127,288.281 29.033 C 288.281 28.938,288.484 28.986,288.732 29.139 C 289.014 29.313,289.077 29.246,288.901 28.960 C 288.745 28.709,288.449 28.607,288.243 28.734 C 288.037 28.862,286.687 28.312,285.243 27.512 C 283.799 26.713,281.079 25.411,279.199 24.619 C 277.319 23.826,275.907 23.051,276.062 22.896 C 276.217 22.742,276.052 22.727,275.695 22.864 C 275.339 23.000,274.729 22.908,274.340 22.659 C 273.702 22.251,273.700 22.228,274.316 22.419 C 274.692 22.536,275.000 22.442,275.000 22.211 C 275.000 21.957,274.612 21.888,274.020 22.036 C 273.432 22.184,271.672 21.878,269.625 21.272 C 265.937 20.180,265.841 20.160,262.215 19.724 C 260.876 19.564,259.859 19.306,259.954 19.152 C 260.049 18.998,255.360 18.884,249.534 18.899 C 243.707 18.915,239.348 19.024,239.848 19.142 M265.592 74.807 C 267.692 75.067,270.336 76.195,271.445 77.304 C 271.896 77.756,272.266 78.010,272.266 77.869 C 272.266 77.728,272.613 77.928,273.038 78.312 C 273.462 78.696,273.699 79.190,273.563 79.409 C 273.428 79.629,273.502 79.694,273.728 79.554 C 274.773 78.908,278.230 84.428,278.883 87.785 C 279.762 92.298,279.770 92.578,279.022 92.584 C 278.460 92.589,278.430 92.659,278.870 92.938 C 280.457 93.943,277.383 101.085,273.978 104.305 C 268.859 109.147,258.307 110.680,255.186 107.035 C 254.835 106.625,254.403 106.380,254.226 106.489 C 253.686 106.823,250.345 104.198,250.569 103.615 C 250.681 103.323,250.610 103.185,250.412 103.307 C 249.890 103.630,247.921 100.910,248.269 100.347 C 248.454 100.048,248.392 99.982,248.099 100.163 C 247.596 100.474,246.305 97.872,246.670 97.282 C 246.785 97.095,246.712 96.883,246.508 96.811 C 245.790 96.558,245.304 91.732,245.727 89.056 C 246.316 85.339,249.575 79.025,250.711 79.404 C 250.857 79.452,250.977 79.387,250.977 79.259 C 250.977 78.686,252.128 77.718,252.597 77.898 C 252.882 78.007,253.074 77.883,253.023 77.623 C 252.844 76.710,257.422 74.817,259.826 74.811 C 261.085 74.807,261.841 74.667,261.584 74.484 C 261.334 74.306,261.743 74.259,262.500 74.378 C 263.252 74.497,264.643 74.689,265.592 74.807 M275.179 82.057 C 275.038 82.286,275.027 82.579,275.156 82.708 C 275.285 82.837,275.391 82.704,275.391 82.412 C 275.391 82.063,275.598 82.141,275.998 82.640 C 276.581 83.368,276.589 83.364,276.180 82.520 C 275.701 81.531,275.548 81.460,275.179 82.057 M319.829 159.261 C 320.315 159.354,321.018 159.351,321.391 159.253 C 321.765 159.155,321.367 159.079,320.508 159.083 C 319.648 159.087,319.343 159.167,319.829 159.261 M6.494 197.705 C 6.168 199.333,6.484 199.649,6.836 198.047 C 6.984 197.372,7.024 196.738,6.925 196.638 C 6.825 196.539,6.631 197.019,6.494 197.705 M256.951 200.048 C 259.061 200.950,260.635 202.276,260.279 202.852 C 260.145 203.068,260.227 203.127,260.461 202.983 C 261.073 202.604,262.862 205.121,263.509 207.271 C 264.417 210.285,263.785 222.004,262.839 219.719 C 262.628 219.211,262.593 219.424,262.735 220.342 C 263.024 222.205,260.470 233.051,259.834 232.661 C 259.689 232.572,259.551 233.053,259.528 233.730 C 259.442 236.244,251.595 254.214,250.799 253.722 C 250.555 253.571,250.499 253.735,250.657 254.145 C 250.845 254.636,250.775 254.730,250.397 254.496 C 250.052 254.283,249.973 254.327,250.159 254.629 C 250.475 255.139,248.858 258.268,248.419 257.996 C 248.263 257.900,248.159 258.127,248.189 258.500 C 248.218 258.876,248.011 259.132,247.725 259.072 C 247.440 259.013,247.323 259.151,247.464 259.379 C 247.814 259.946,245.336 263.732,244.822 263.415 C 244.578 263.264,244.526 263.348,244.694 263.620 C 245.071 264.230,241.494 269.241,240.930 268.892 C 240.675 268.735,240.616 268.810,240.784 269.082 C 241.141 269.660,238.336 273.127,237.786 272.787 C 237.563 272.649,237.486 272.708,237.617 272.920 C 237.871 273.331,235.684 276.218,235.232 276.067 C 235.083 276.017,234.913 276.152,234.855 276.367 C 234.641 277.153,228.757 282.766,228.386 282.537 C 228.176 282.407,228.122 282.492,228.266 282.725 C 228.411 282.959,228.199 283.381,227.797 283.665 C 227.394 283.948,226.133 284.971,224.994 285.938 C 223.856 286.904,222.701 287.647,222.429 287.587 C 222.157 287.528,221.806 287.687,221.649 287.941 C 221.453 288.258,221.535 288.298,221.912 288.071 C 222.381 287.789,222.380 287.840,221.910 288.419 C 221.607 288.793,221.126 289.008,220.841 288.899 C 220.555 288.790,220.364 288.913,220.415 289.174 C 220.466 289.435,220.288 289.604,220.020 289.551 C 219.751 289.497,219.531 289.612,219.531 289.806 C 219.531 290.791,207.890 297.400,206.788 297.040 C 206.252 296.866,206.196 296.902,206.577 297.175 C 207.162 297.594,200.600 300.566,199.962 300.172 C 199.768 300.052,199.609 300.121,199.609 300.325 C 199.609 301.465,184.702 305.158,176.563 306.035 C 168.385 306.917,146.337 305.874,147.098 304.642 C 147.213 304.457,147.037 304.409,146.708 304.535 C 143.857 305.630,115.161 295.839,116.216 294.132 C 116.343 293.927,116.202 293.853,115.903 293.968 C 115.008 294.311,105.210 288.280,105.763 287.726 C 105.924 287.566,105.860 287.493,105.622 287.565 C 104.955 287.766,101.515 285.158,101.813 284.677 C 101.969 284.424,101.891 284.367,101.621 284.534 C 101.043 284.891,97.576 282.086,97.916 281.536 C 98.062 281.300,97.979 281.246,97.717 281.408 C 96.655 282.064,83.812 268.027,84.200 266.633 C 84.347 266.104,84.307 265.991,84.083 266.311 C 82.618 268.406,81.492 259.218,82.792 255.782 C 83.904 252.844,87.459 249.427,89.026 249.790 C 89.730 249.952,89.871 249.912,89.488 249.657 C 88.703 249.135,91.404 248.438,94.141 248.457 C 96.688 248.474,100.243 249.594,100.088 250.330 C 100.029 250.610,100.168 250.723,100.398 250.581 C 100.945 250.243,102.018 251.142,101.693 251.667 C 101.554 251.892,101.629 251.958,101.860 251.815 C 102.382 251.493,105.144 254.656,104.811 255.195 C 104.677 255.412,104.756 255.473,104.986 255.330 C 105.637 254.928,107.186 257.077,106.555 257.506 C 106.184 257.757,106.219 257.816,106.690 257.731 C 107.327 257.617,112.745 262.810,112.583 263.379 C 112.538 263.540,112.720 263.628,112.988 263.574 C 113.257 263.521,113.433 263.696,113.379 263.965 C 113.325 264.233,113.501 264.409,113.770 264.355 C 114.038 264.302,114.199 264.521,114.128 264.844 C 114.056 265.166,114.123 265.304,114.277 265.150 C 114.672 264.755,116.087 265.584,115.802 266.045 C 115.673 266.254,115.800 266.377,116.084 266.318 C 116.369 266.259,116.553 266.444,116.494 266.728 C 116.435 267.013,116.559 267.139,116.770 267.009 C 117.238 266.720,122.113 270.260,121.963 270.780 C 121.904 270.985,122.036 271.040,122.256 270.904 C 122.476 270.768,122.864 270.786,123.119 270.943 C 123.437 271.139,123.345 271.323,122.826 271.531 C 122.238 271.767,122.334 271.822,123.253 271.778 C 124.578 271.715,125.513 272.142,125.191 272.664 C 125.074 272.853,125.323 273.192,125.745 273.418 C 126.906 274.040,127.290 273.882,126.172 273.242 C 123.977 271.988,125.976 272.800,130.809 275.128 C 133.632 276.487,135.809 277.746,135.647 277.925 C 135.484 278.103,135.643 278.145,136.000 278.018 C 136.871 277.706,139.487 278.536,139.183 279.028 C 139.044 279.252,139.140 279.295,139.409 279.129 C 139.666 278.970,141.055 279.195,142.497 279.629 C 159.247 284.669,180.246 283.079,195.756 275.597 C 196.899 275.045,198.056 274.679,198.326 274.783 C 198.597 274.887,198.777 274.809,198.726 274.610 C 198.594 274.095,203.902 271.045,204.397 271.351 C 204.623 271.491,204.696 271.424,204.559 271.202 C 204.422 270.980,205.054 270.310,205.963 269.713 C 206.873 269.115,208.606 267.870,209.814 266.946 C 211.022 266.022,212.135 265.390,212.288 265.543 C 212.440 265.695,212.516 265.645,212.455 265.430 C 212.394 265.215,214.327 263.105,216.750 260.742 C 219.173 258.379,222.479 254.688,224.097 252.539 C 225.714 250.391,227.208 248.681,227.415 248.740 C 227.623 248.799,227.687 248.677,227.559 248.469 C 227.430 248.261,227.921 247.158,228.650 246.018 C 234.362 237.082,237.838 226.693,239.272 214.268 C 239.985 208.094,240.628 205.730,242.174 203.596 C 245.278 199.311,251.651 197.781,256.951 200.048 M6.356 201.172 C 6.356 202.139,6.433 202.534,6.526 202.051 C 6.619 201.567,6.619 200.776,6.526 200.293 C 6.433 199.810,6.356 200.205,6.356 201.172 M91.797 249.194 C 91.797 249.396,92.136 249.535,92.551 249.504 C 92.966 249.473,93.219 249.308,93.114 249.138 C 92.846 248.705,91.797 248.750,91.797 249.194 M132.967 277.142 C 133.013 277.456,133.201 277.849,133.385 278.016 C 133.569 278.184,133.574 278.071,133.397 277.766 C 133.157 277.353,133.241 277.275,133.725 277.460 C 134.613 277.801,134.547 277.463,133.629 276.972 C 133.048 276.661,132.902 276.698,132.967 277.142 M25.359 284.315 C 25.626 284.816,25.601 285.199,25.275 285.566 C 24.881 286.009,24.915 286.012,25.480 285.585 C 26.096 285.119,25.857 283.594,25.168 283.594 C 25.060 283.594,25.146 283.918,25.359 284.315 M130.111 300.140 C 130.200 300.218,130.801 300.399,131.445 300.543 C 132.301 300.734,132.459 300.698,132.031 300.408 C 131.504 300.052,129.719 299.802,130.111 300.140 M146.784 364.346 C 147.486 364.433,148.541 364.431,149.128 364.342 C 149.715 364.252,149.141 364.181,147.852 364.184 C 146.563 364.186,146.082 364.259,146.784 364.346 M194.141 364.607 C 194.141 364.986,195.241 365.128,195.739 364.814 C 196.139 364.560,195.997 364.463,195.215 364.459 C 194.624 364.456,194.141 364.522,194.141 364.607 M197.266 364.603 C 197.266 364.950,198.846 365.131,199.046 364.807 C 199.166 364.612,198.815 364.453,198.265 364.453 C 197.715 364.453,197.266 364.521,197.266 364.603 M203.711 364.844 C 204.786 365.306,205.168 365.306,204.883 364.844 C 204.750 364.629,204.256 364.465,203.786 364.481 C 202.960 364.507,202.958 364.520,203.711 364.844 M205.892 364.593 C 206.352 364.990,208.245 365.227,208.017 364.859 C 207.879 364.636,207.308 364.453,206.748 364.453 C 206.188 364.453,205.802 364.516,205.892 364.593 " stroke="none" fill="#000000" fill-rule="evenodd"></path></g></svg>